<svg width="324" height="274" viewBox="0 0 324 274" fill="none" xmlns="http://www.w3.org/2000/svg">
<g clip-path="url(#clip0_2796_187246)">
<path d="M306.223 245.902H280.734V246.095H306.223V245.902Z" fill="#EBEBEB"/>
<path d="M214.887 247.996H208.199V248.189H214.887V247.996Z" fill="#EBEBEB"/>
<path d="M279.964 238.758H265.195V238.95H279.964V238.758Z" fill="#EBEBEB"/>
<path d="M33.5924 240.051H0.353516V240.243H33.5924V240.051Z" fill="#EBEBEB"/>
<path d="M45.3208 240.051H40.4492V240.243H45.3208V240.051Z" fill="#EBEBEB"/>
<path d="M133.254 243.301H61.1582V243.493H133.254V243.301Z" fill="#EBEBEB"/>
<path d="M143.453 199.191H-5.15639C-7.58062 199.191 -9.55078 197.221 -9.55078 194.797V-14.113C-9.55078 -16.5375 -7.58062 -18.5078 -5.15639 -18.5078H143.453C145.877 -18.5078 147.847 -16.5375 147.847 -14.113V194.797C147.847 197.221 145.877 199.191 143.453 199.191ZM-5.15639 -18.3154C-7.47287 -18.3154 -9.35838 -16.4297 -9.35838 -14.113V194.797C-9.35838 197.113 -7.47287 198.999 -5.15639 198.999H143.453C145.769 198.999 147.655 197.113 147.655 194.797V-14.113C147.655 -16.4297 145.769 -18.3154 143.453 -18.3154H-5.15639Z" fill="#EBEBEB"/>
<path d="M309.917 199.191H161.308C158.884 199.191 156.914 197.221 156.914 194.797V-14.113C156.914 -16.5375 158.884 -18.5078 161.308 -18.5078H309.917C312.342 -18.5078 314.312 -16.5375 314.312 -14.113V194.797C314.312 197.221 312.342 199.191 309.917 199.191ZM161.308 -18.3154C158.992 -18.3154 157.106 -16.4297 157.106 -14.113V194.797C157.106 197.113 158.992 198.999 161.308 198.999H309.917C312.234 198.999 314.119 197.113 314.119 194.797V-14.113C314.119 -16.4297 312.234 -18.3154 309.917 -18.3154H161.308Z" fill="#EBEBEB"/>
<path d="M344.779 233.52H-40.0195V233.712H344.779V233.52Z" fill="#EBEBEB"/>
<path d="M271.208 53.9479H250.521C243.957 53.9479 238.639 48.6295 238.639 42.0643V21.3758C238.639 14.8106 243.957 9.49219 250.521 9.49219H271.208C277.773 9.49219 283.091 14.8106 283.091 21.3758V42.0643C283.091 48.6295 277.773 53.9479 271.208 53.9479Z" fill="#EBEBEB"/>
<path d="M266.399 25.4397C266.399 29.2265 264.475 32.2974 260.689 32.2974C256.903 32.2974 254.979 29.2265 254.979 25.4397C254.979 21.653 256.903 18.582 260.689 18.582C264.475 18.582 266.399 21.653 266.399 25.4397Z" fill="#FAFAFA"/>
<path d="M260.69 44.8578H271.256V38.5773C271.256 35.1061 266.523 32.2969 260.69 32.2969C254.856 32.2969 250.123 35.1138 250.123 38.5773V44.8578H260.69Z" fill="#FAFAFA"/>
<path d="M76.5677 55.4468H62.1224C57.5356 55.4468 53.8262 51.7293 53.8262 47.1498V32.7032C53.8262 28.116 57.5433 24.4062 62.1224 24.4062H76.5677C81.1545 24.4062 84.864 28.1237 84.864 32.7032V47.1498C84.864 51.7293 81.1468 55.4468 76.5677 55.4468Z" fill="#EBEBEB"/>
<path d="M68.7109 41.5987C69.0803 41.0676 69.6113 40.4827 70.3193 39.8362C70.835 39.3667 71.2121 38.9741 71.4583 38.6509C71.6969 38.3276 71.82 37.9659 71.82 37.558C71.82 36.9807 71.5892 36.5189 71.1274 36.1803C70.6656 35.8416 70.05 35.6723 69.2804 35.6723C68.5416 35.6723 67.8874 35.8262 67.3179 36.1264C66.7484 36.4343 66.2636 36.8576 65.8711 37.404L63.0312 35.7339C63.6854 34.7333 64.5781 33.9559 65.6941 33.4095C66.81 32.863 68.1414 32.5859 69.6729 32.5859C71.4737 32.5859 72.9206 32.9708 74.0057 33.7404C75.0908 34.5101 75.6372 35.5722 75.6372 36.9345C75.6372 37.5734 75.5295 38.1429 75.3217 38.6278C75.1139 39.1127 74.8523 39.5206 74.5444 39.8593C74.2366 40.1979 73.8441 40.5827 73.3592 41.0214C72.782 41.5371 72.3588 41.9758 72.0894 42.3222C71.82 42.6762 71.6892 43.0995 71.6892 43.5998H68.1414C68.1568 42.7994 68.3415 42.1298 68.7109 41.5987ZM68.3338 48.8874C67.9028 48.4718 67.6873 47.9638 67.6873 47.3712C67.6873 46.7785 67.8951 46.2782 68.3184 45.878C68.7417 45.4778 69.2804 45.2777 69.9422 45.2777C70.5964 45.2777 71.1428 45.4778 71.5661 45.878C71.9894 46.2782 72.1971 46.7708 72.1971 47.3712C72.1971 47.9638 71.9817 48.4718 71.5507 48.8874C71.1197 49.303 70.581 49.5108 69.9422 49.5108C69.3035 49.5108 68.7647 49.303 68.3338 48.8874Z" fill="#FAFAFA"/>
<path d="M280.257 154.712H269.075C265.527 154.712 262.648 151.834 262.648 148.286V137.102C262.648 133.554 265.527 130.676 269.075 130.676H280.257C283.805 130.676 286.683 133.554 286.683 137.102V148.286C286.683 151.834 283.805 154.712 280.257 154.712Z" fill="#EBEBEB"/>
<path d="M274.176 143.997C274.461 143.581 274.876 143.127 275.423 142.634C275.823 142.273 276.115 141.965 276.308 141.718C276.492 141.472 276.592 141.187 276.592 140.872C276.592 140.425 276.415 140.071 276.054 139.81C275.7 139.548 275.223 139.417 274.63 139.417C274.06 139.417 273.553 139.533 273.114 139.771C272.675 140.01 272.298 140.341 271.998 140.764L269.797 139.471C270.305 138.694 270.99 138.093 271.859 137.67C272.729 137.247 273.753 137.031 274.938 137.031C276.331 137.031 277.447 137.331 278.293 137.924C279.132 138.517 279.555 139.34 279.555 140.395C279.555 140.895 279.471 141.326 279.309 141.703C279.147 142.08 278.947 142.396 278.709 142.657C278.47 142.919 278.17 143.219 277.793 143.558C277.347 143.958 277.016 144.297 276.808 144.566C276.6 144.836 276.5 145.167 276.5 145.559H273.753C273.753 144.928 273.891 144.405 274.176 143.997ZM273.883 149.638C273.553 149.315 273.383 148.93 273.383 148.468C273.383 148.007 273.545 147.622 273.876 147.314C274.207 147.006 274.622 146.852 275.13 146.852C275.638 146.852 276.054 147.006 276.385 147.314C276.716 147.622 276.877 148.007 276.877 148.468C276.877 148.93 276.708 149.323 276.377 149.638C276.046 149.962 275.63 150.123 275.13 150.123C274.638 150.123 274.222 149.962 273.883 149.638Z" fill="#F6F6F6"/>
<path d="M50.1068 102.013H35.6615C31.0747 102.013 27.3652 98.2957 27.3652 93.7162V79.2696C27.3652 74.6824 31.0824 70.9727 35.6615 70.9727H50.1068C54.6936 70.9727 58.403 74.6901 58.403 79.2696V93.7162C58.403 98.2957 54.6859 102.013 50.1068 102.013Z" fill="#EBEBEB"/>
<path d="M42.88 77.707C39.0013 77.707 35.8613 80.8473 35.8613 84.7264C35.8613 88.6055 39.0013 97.903 42.88 97.903C46.7588 97.903 49.8988 88.6055 49.8988 84.7264C49.8988 80.8549 46.7588 77.707 42.88 77.707ZM42.88 86.8506C41.7103 86.8506 40.7637 85.9039 40.7637 84.734C40.7637 83.5642 41.7103 82.6175 42.88 82.6175C44.0498 82.6175 44.9964 83.5642 44.9964 84.734C44.9964 85.8962 44.0498 86.8506 42.88 86.8506Z" fill="#FAFAFA"/>
<path d="M45.9836 128.873C46.0913 128.173 46.1529 127.449 46.1529 126.718C46.1529 125.987 46.0913 125.263 45.9836 124.563L43.821 124.286C43.6517 123.485 43.3977 122.723 43.0745 122L44.6599 120.507C43.998 119.214 43.1438 118.036 42.1279 117.02L40.2039 118.067C39.6113 117.528 38.9572 117.059 38.2645 116.651L38.6647 114.503C37.4026 113.857 36.025 113.395 34.5705 113.172L33.6393 115.135C33.2468 115.096 32.8389 115.073 32.431 115.073C32.0231 115.073 31.6229 115.096 31.2227 115.135L30.2915 113.172C28.837 113.403 27.4594 113.857 26.1973 114.503L26.5975 116.651C25.8971 117.059 25.2507 117.528 24.6581 118.067L22.7341 117.02C21.7182 118.036 20.864 119.214 20.2021 120.507L21.7875 122C21.4643 122.731 21.2103 123.493 21.041 124.286L18.8861 124.563C18.7784 125.263 18.7168 125.987 18.7168 126.718C18.7168 127.449 18.7784 128.173 18.8861 128.873L21.041 129.15C21.2103 129.951 21.4643 130.713 21.7875 131.436L20.2021 132.929C20.864 134.222 21.7182 135.4 22.7341 136.416L24.6581 135.369C25.2507 135.908 25.9048 136.377 26.5975 136.785L26.1973 138.933C27.4594 139.579 28.837 140.041 30.2915 140.264L31.2227 138.301C31.6152 138.34 32.0231 138.363 32.431 138.363C32.8389 138.363 33.2391 138.34 33.6393 138.301L34.5705 140.264C36.025 140.033 37.4026 139.579 38.6647 138.933L38.2645 136.785C38.9649 136.377 39.6113 135.908 40.2039 135.369L42.1279 136.416C43.1438 135.4 43.998 134.222 44.6599 132.929L43.0745 131.436C43.3977 130.705 43.6517 129.943 43.821 129.15L45.9836 128.873ZM32.4387 131.513C29.7913 131.513 27.6518 129.366 27.6518 126.726C27.6518 124.078 29.799 121.938 32.4387 121.938C35.0861 121.938 37.2256 124.086 37.2256 126.726C37.2256 129.366 35.0784 131.513 32.4387 131.513Z" fill="#EBEBEB"/>
<path d="M52.9245 144.358C52.9783 144.004 53.0091 143.65 53.0091 143.281C53.0091 142.911 52.9783 142.557 52.9245 142.203L51.847 142.065C51.7624 141.665 51.6315 141.287 51.4699 140.918L52.2626 140.171C51.9317 139.525 51.5084 138.94 51.0005 138.432L50.0385 138.955C49.7383 138.686 49.4151 138.447 49.0688 138.247L49.2689 137.177C48.6378 136.854 47.9452 136.623 47.2218 136.508L46.7523 137.493C46.5522 137.47 46.3521 137.462 46.152 137.462C45.9519 137.462 45.7441 137.47 45.5517 137.493L45.0823 136.508C44.3589 136.623 43.6662 136.854 43.0352 137.177L43.2353 138.247C42.8889 138.447 42.5657 138.686 42.2656 138.955L41.3036 138.432C40.7956 138.94 40.3647 139.525 40.0414 140.171L40.8341 140.918C40.6725 141.28 40.5417 141.665 40.457 142.065L39.3796 142.203C39.3257 142.557 39.2949 142.911 39.2949 143.281C39.2949 143.65 39.3257 144.004 39.3796 144.358L40.457 144.497C40.5417 144.897 40.6725 145.274 40.8341 145.644L40.0414 146.39C40.3724 147.037 40.7956 147.622 41.3036 148.13L42.2656 147.606C42.5657 147.876 42.8889 148.114 43.2353 148.314L43.0352 149.384C43.6662 149.708 44.3589 149.938 45.0823 150.054L45.5517 149.069C45.7518 149.092 45.9519 149.1 46.152 149.1C46.3521 149.1 46.5599 149.092 46.7523 149.069L47.2218 150.054C47.9452 149.938 48.6378 149.708 49.2689 149.384L49.0688 148.314C49.4151 148.114 49.7383 147.876 50.0385 147.606L51.0005 148.13C51.5084 147.622 51.9394 147.037 52.2626 146.39L51.4699 145.644C51.6315 145.282 51.7624 144.897 51.847 144.497L52.9245 144.358ZM46.152 145.675C44.8283 145.675 43.7586 144.605 43.7586 143.281C43.7586 141.957 44.8283 140.887 46.152 140.887C47.4757 140.887 48.5455 141.957 48.5455 143.281C48.5455 144.605 47.468 145.675 46.152 145.675Z" fill="#EBEBEB"/>
<path d="M290.706 128.829C290.991 128.621 291.268 128.39 291.53 128.129C291.792 127.867 292.022 127.597 292.23 127.305L291.568 126.443C291.792 126.104 291.969 125.743 292.115 125.373L293.2 125.404C293.423 124.711 293.539 123.995 293.539 123.28L292.492 122.972C292.469 122.572 292.407 122.171 292.307 121.787L293.208 121.171C292.992 120.493 292.661 119.847 292.23 119.254L291.207 119.616C291.084 119.462 290.945 119.308 290.799 119.17C290.653 119.023 290.506 118.893 290.352 118.762L290.714 117.738C290.122 117.307 289.467 116.976 288.798 116.761L288.182 117.661C287.79 117.561 287.397 117.5 286.997 117.476L286.689 116.43C285.973 116.43 285.25 116.545 284.565 116.768L284.596 117.861C284.226 118.007 283.865 118.185 283.526 118.408L282.664 117.746C282.379 117.954 282.102 118.185 281.841 118.446C281.579 118.708 281.348 118.977 281.14 119.27L281.802 120.132C281.579 120.47 281.402 120.832 281.256 121.202L280.171 121.171C279.947 121.863 279.832 122.579 279.832 123.295L280.879 123.603C280.902 124.003 280.963 124.403 281.063 124.788L280.163 125.404C280.378 126.081 280.709 126.728 281.14 127.32L282.164 126.959C282.287 127.113 282.426 127.267 282.572 127.405C282.718 127.551 282.864 127.682 283.018 127.813L282.656 128.837C283.249 129.268 283.903 129.599 284.573 129.814L285.188 128.914C285.581 129.014 285.973 129.075 286.374 129.098L286.681 130.145C287.397 130.145 288.121 130.03 288.806 129.806L288.775 128.714C289.144 128.567 289.506 128.39 289.844 128.167L290.706 128.829ZM284.988 124.973C284.057 124.042 284.057 122.525 284.988 121.586C285.92 120.655 287.436 120.655 288.375 121.586C289.313 122.525 289.313 124.042 288.375 124.973C287.436 125.904 285.92 125.904 284.988 124.973Z" fill="#EBEBEB"/>
<path d="M152.379 265.308C234.789 265.308 301.596 261.407 301.596 256.595C301.596 251.784 234.789 247.883 152.379 247.883C69.9688 247.883 3.16211 251.784 3.16211 256.595C3.16211 261.407 69.9688 265.308 152.379 265.308Z" fill="#E7E8F0"/>
<path d="M111.185 50.3906C102.958 50.3906 96.293 55.2472 96.293 61.2352C96.293 65.5915 99.8254 69.332 104.912 71.0561C104.366 73.596 103.419 75.9819 102.134 78.1524C105.951 77.5905 109.184 75.2815 111.023 72.072C111.077 72.072 111.131 72.0797 111.185 72.0797C119.412 72.0797 126.076 67.2232 126.076 61.2352C126.076 55.2472 119.412 50.3906 111.185 50.3906Z" fill="#F6F6F6"/>
<path opacity="0.7" d="M111.185 50.3906C102.958 50.3906 96.293 55.2472 96.293 61.2352C96.293 65.5915 99.8254 69.332 104.912 71.0561C104.366 73.596 103.419 75.9819 102.134 78.1524C105.951 77.5905 109.184 75.2815 111.023 72.072C111.077 72.072 111.131 72.0797 111.185 72.0797C119.412 72.0797 126.076 67.2232 126.076 61.2352C126.076 55.2472 119.412 50.3906 111.185 50.3906Z" fill="white"/>
<path d="M104.622 63.3215C105.459 63.3215 106.138 62.6427 106.138 61.8053C106.138 60.9679 105.459 60.2891 104.622 60.2891C103.784 60.2891 103.105 60.9679 103.105 61.8053C103.105 62.6427 103.784 63.3215 104.622 63.3215Z" fill="#2C2C2C"/>
<path d="M112.601 61.8053C112.601 62.6442 111.923 63.3215 111.084 63.3215C110.246 63.3215 109.568 62.6442 109.568 61.8053C109.568 60.9664 110.246 60.2891 111.084 60.2891C111.923 60.2891 112.601 60.9664 112.601 61.8053Z" fill="#2C2C2C"/>
<path d="M117.552 63.3215C118.389 63.3215 119.068 62.6427 119.068 61.8053C119.068 60.9679 118.389 60.2891 117.552 60.2891C116.714 60.2891 116.035 60.9679 116.035 61.8053C116.035 62.6427 116.714 63.3215 117.552 63.3215Z" fill="#2C2C2C"/>
<path d="M89.1734 183.664H84.1172V216.89H89.1734V183.664Z" fill="#2C2C2C"/>
<path opacity="0.5" d="M89.1734 183.664H84.1172V216.89H89.1734V183.664Z" fill="white"/>
<path d="M102.01 241.789L90.1732 239.649V215.874C90.1732 215.136 89.5729 214.543 88.8418 214.543H84.4628C83.724 214.543 83.1314 215.143 83.1314 215.874V239.649L71.295 241.789C69.5788 242.097 68.332 243.59 68.332 245.337L86.6561 243.682L104.98 245.337C104.973 243.59 103.718 242.097 102.01 241.789Z" fill="#2C2C2C"/>
<path d="M72.1647 248.923C72.1647 251.047 70.4408 252.771 68.3167 252.771C66.1926 252.771 64.4688 251.047 64.4688 248.923C64.4688 246.798 66.1926 245.074 68.3167 245.074C70.4408 245.074 72.1647 246.798 72.1647 248.923Z" fill="#2C2C2C"/>
<path d="M108.819 248.923C108.819 251.047 107.095 252.771 104.971 252.771C102.847 252.771 101.123 251.047 101.123 248.923C101.123 246.798 102.847 245.074 104.971 245.074C107.095 245.074 108.819 246.798 108.819 248.923Z" fill="#1F1F1F"/>
<path d="M89.6513 248.923C89.6513 251.047 88.7739 252.771 86.6499 252.771C84.5258 252.771 83.6484 251.047 83.6484 248.923C83.6484 246.798 84.5258 245.074 86.6499 245.074C88.7739 245.074 89.6513 246.798 89.6513 248.923Z" fill="#2C2C2C"/>
<g opacity="0.5">
<path opacity="0.5" d="M90.2891 239.664V244.005L91.7128 244.136V239.926L90.2891 239.664Z" fill="#1F1F1F"/>
<path opacity="0.5" d="M81.6074 239.918V244.128L83.0389 244.005V239.664L81.6074 239.918Z" fill="#1F1F1F"/>
</g>
<path d="M53.6333 153.395C52.2788 153.395 51.2475 154.626 51.5015 155.965L56.196 181.264C56.6347 183.635 58.7049 185.359 61.1215 185.359H84.1093H112.1H135.095C136.927 185.359 138.42 183.873 138.42 182.034C138.42 179.425 136.303 177.316 133.702 177.316H110.707H91.482C89.1809 177.316 87.1723 175.746 86.6259 173.514L82.8472 158.259C82.1391 155.403 79.5764 153.395 76.6365 153.395H53.6333Z" fill="#2C2C2C"/>
<path d="M63.6227 173.514L59.8439 158.259C59.1359 155.403 56.5732 153.395 53.6333 153.395C52.2788 153.395 51.2475 154.626 51.5015 155.965L56.196 181.264C56.6347 183.635 58.7049 185.359 61.1215 185.359H112.107C113.939 185.359 115.432 183.873 115.432 182.034C115.432 179.425 113.315 177.316 110.714 177.316H68.5019C66.1777 177.316 64.1768 175.746 63.6227 173.514Z" fill="#2C2C2C"/>
<path opacity="0.2" d="M63.6227 173.514L59.8439 158.259C59.1359 155.403 56.5732 153.395 53.6333 153.395C52.2788 153.395 51.2475 154.626 51.5015 155.965L56.196 181.264C56.6347 183.635 58.7049 185.359 61.1215 185.359H112.107C113.939 185.359 115.432 183.873 115.432 182.034C115.432 179.425 113.315 177.316 110.714 177.316H68.5019C66.1777 177.316 64.1768 175.746 63.6227 173.514Z" fill="white"/>
<path d="M246.256 216.309C246.256 216.309 246.356 206.026 242.623 207.381C238.883 208.743 246.256 216.309 246.256 216.309Z" fill="#383972"/>
<path d="M250.288 206.798C250.288 206.798 255.237 198.578 250.765 197.4C246.294 196.223 250.288 206.798 250.288 206.798Z" fill="#383972"/>
<path d="M269.875 200.992C269.875 200.992 280.164 200.461 277.833 196.605C275.508 192.749 269.875 200.992 269.875 200.992Z" fill="#383972"/>
<path d="M253.598 203.725C253.598 203.725 264.387 201.293 262.356 207.343C260.316 213.392 253.598 203.725 253.598 203.725Z" fill="#383972"/>
<path d="M245.771 225.601C245.771 225.601 241.608 216.28 239.307 219.59C237.006 222.899 245.771 225.601 245.771 225.601Z" fill="#383972"/>
<path d="M257.515 201.787C257.515 201.787 268.49 198.908 265.073 194.86C261.648 190.804 257.515 201.787 257.515 201.787Z" fill="#383972"/>
<path d="M265.812 200.656C265.812 200.656 274.494 204.92 270.484 207.699C266.49 210.485 265.812 200.656 265.812 200.656Z" fill="#383972"/>
<path d="M247.357 212.178C247.357 212.178 253.368 204.943 255.223 210.2C257.077 215.457 247.357 212.178 247.357 212.178Z" fill="#383972"/>
<g opacity="0.4">
<path opacity="0.4" d="M245.771 225.601C245.771 225.601 241.608 216.28 239.307 219.59C237.006 222.899 245.771 225.601 245.771 225.601Z" fill="white"/>
<path opacity="0.4" d="M257.515 201.787C257.515 201.787 268.49 198.908 265.073 194.86C261.648 190.804 257.515 201.787 257.515 201.787Z" fill="white"/>
<path opacity="0.4" d="M265.812 200.656C265.812 200.656 274.494 204.92 270.484 207.699C266.49 210.485 265.812 200.656 265.812 200.656Z" fill="white"/>
<path opacity="0.4" d="M247.357 212.178C247.357 212.178 253.368 204.943 255.223 210.2C257.077 215.457 247.357 212.178 247.357 212.178Z" fill="white"/>
</g>
<path d="M245.709 221.569C245.709 221.569 250.019 212.318 253.49 216.982C256.96 221.654 245.709 221.569 245.709 221.569Z" fill="#383972"/>
<path d="M245.78 231.282C244.549 225.424 244.579 218.821 246.326 213.094C249.851 201.565 260.656 198.825 271.592 200.572C272.462 200.711 272.069 202.027 271.207 201.888C265.405 200.965 258.863 200.872 253.845 204.382C250.228 206.914 248.181 210.939 247.196 215.149C246.011 220.206 246.042 225.863 247.111 230.951C247.288 231.805 245.965 232.144 245.78 231.282Z" fill="#383972"/>
<g opacity="0.3">
<path opacity="0.3" d="M245.78 231.282C244.549 225.424 244.579 218.821 246.326 213.094C249.851 201.565 260.656 198.825 271.592 200.572C272.462 200.711 272.069 202.027 271.207 201.888C265.405 200.965 258.863 200.872 253.845 204.382C250.228 206.914 248.181 210.939 247.196 215.149C246.011 220.206 246.042 225.863 247.111 230.951C247.288 231.805 245.965 232.144 245.78 231.282Z" fill="#1F1F1F"/>
</g>
<path d="M237.211 213.18C237.211 213.18 231.863 200.619 228.33 203.897C224.79 207.176 237.211 213.18 237.211 213.18Z" fill="#383972"/>
<path d="M236.75 199.833C236.75 199.833 238.02 187.664 232.302 188.18C226.583 188.703 236.75 199.833 236.75 199.833Z" fill="#383972"/>
<path d="M255.98 184.225C255.98 184.225 267.417 179.091 262.722 175.412C258.02 171.733 255.98 184.225 255.98 184.225Z" fill="#383972"/>
<path d="M238.887 194.654C238.887 194.654 249.892 186.988 250.785 195.239C251.677 203.49 238.887 194.654 238.887 194.654Z" fill="#383972"/>
<path d="M241.598 224.693C241.598 224.693 231.909 215.165 231.047 220.198C230.178 225.24 241.598 224.693 241.598 224.693Z" fill="#383972"/>
<path d="M242.313 190.581C242.313 190.581 253.287 182.292 247.238 178.843C241.189 175.403 242.313 190.581 242.313 190.581Z" fill="#383972"/>
<path d="M251.172 185.586C251.172 185.586 263.324 186.987 260.238 192.12C257.159 197.254 251.172 185.586 251.172 185.586Z" fill="#383972"/>
<path d="M236.264 207.661C236.264 207.661 239.265 196.232 244.175 201.827C249.085 207.423 236.264 207.661 236.264 207.661Z" fill="#383972"/>
<g opacity="0.4">
<path opacity="0.4" d="M241.598 224.693C241.598 224.693 231.909 215.165 231.047 220.198C230.178 225.24 241.598 224.693 241.598 224.693Z" fill="white"/>
<path opacity="0.4" d="M242.313 190.581C242.313 190.581 253.287 182.292 247.238 178.843C241.189 175.403 242.313 190.581 242.313 190.581Z" fill="white"/>
<path opacity="0.4" d="M251.172 185.586C251.172 185.586 263.324 186.987 260.238 192.12C257.159 197.254 251.172 185.586 251.172 185.586Z" fill="white"/>
<path opacity="0.4" d="M236.264 207.661C236.264 207.661 239.265 196.232 244.175 201.827C249.085 207.423 236.264 207.661 236.264 207.661Z" fill="white"/>
</g>
<path d="M239.381 219.813C239.381 219.813 239.373 206.675 245.807 210.839C252.241 215.01 239.381 219.813 239.381 219.813Z" fill="#383972"/>
<path d="M244.615 231.605C240.105 225.017 236.626 216.958 235.58 209.223C233.471 193.645 244.322 185.602 257.706 182.962C258.768 182.754 259.022 184.517 257.967 184.725C250.872 186.126 243.368 188.873 239.512 195.338C236.734 199.995 236.542 205.791 237.65 211.347C238.989 218.013 242.029 224.894 245.946 230.62C246.616 231.59 245.284 232.575 244.615 231.605Z" fill="#383972"/>
<g opacity="0.3">
<path opacity="0.3" d="M244.615 231.605C240.105 225.017 236.626 216.958 235.58 209.223C233.471 193.645 244.322 185.602 257.706 182.962C258.768 182.754 259.022 184.517 257.967 184.725C250.872 186.126 243.368 188.873 239.512 195.338C236.734 199.995 236.542 205.791 237.65 211.347C238.989 218.013 242.029 224.894 245.946 230.62C246.616 231.59 245.284 232.575 244.615 231.605Z" fill="#1F1F1F"/>
</g>
<path d="M235.936 216.495C235.936 216.495 238.498 207.975 241.238 210.053C243.97 212.131 235.936 216.495 235.936 216.495Z" fill="#383972"/>
<path d="M235.041 207.599C235.041 207.599 233.064 199.533 237.066 199.71C241.06 199.887 235.041 207.599 235.041 207.599Z" fill="#383972"/>
<path d="M220.351 197.764C220.351 197.764 211.986 194.677 214.903 192.091C217.812 189.505 220.351 197.764 220.351 197.764Z" fill="#383972"/>
<path d="M233.103 204.206C233.103 204.206 224.806 199.427 224.937 204.945C225.06 210.464 233.103 204.206 233.103 204.206Z" fill="#383972"/>
<path d="M233.941 224.294C233.941 224.294 239.775 217.667 240.829 220.992C241.884 224.317 233.941 224.294 233.941 224.294Z" fill="#383972"/>
<path d="M230.365 201.597C230.365 201.597 222.038 196.394 225.902 193.931C229.773 191.46 230.365 201.597 230.365 201.597Z" fill="#383972"/>
<path d="M223.791 198.535C223.791 198.535 215.525 199.828 218.119 203.153C220.713 206.478 223.791 198.535 223.791 198.535Z" fill="#383972"/>
<path d="M236.09 212.794C236.09 212.794 232.98 205.267 230.094 209.138C227.208 213.01 236.09 212.794 236.09 212.794Z" fill="#383972"/>
<g opacity="0.4">
<path opacity="0.4" d="M233.941 224.294C233.941 224.294 239.775 217.667 240.829 220.992C241.884 224.317 233.941 224.294 233.941 224.294Z" fill="white"/>
<path opacity="0.4" d="M230.365 201.597C230.365 201.597 222.038 196.394 225.902 193.931C229.773 191.46 230.365 201.597 230.365 201.597Z" fill="white"/>
<path opacity="0.4" d="M223.791 198.535C223.791 198.535 215.525 199.828 218.119 203.153C220.713 206.478 223.791 198.535 223.791 198.535Z" fill="white"/>
<path opacity="0.4" d="M236.09 212.794C236.09 212.794 232.98 205.267 230.094 209.138C227.208 213.01 236.09 212.794 236.09 212.794Z" fill="white"/>
</g>
<path d="M235.027 220.978C235.027 220.978 233.842 212.227 229.778 215.191C225.715 218.154 235.027 220.978 235.027 220.978Z" fill="#383972"/>
<path d="M232.482 228.982C235.007 224.456 236.677 218.992 236.707 213.812C236.761 203.375 228.534 198.342 219.045 196.972C218.291 196.864 218.276 198.049 219.022 198.157C224.055 198.881 229.481 200.489 232.729 204.684C235.068 207.701 235.722 211.557 235.461 215.29C235.137 219.769 233.66 224.441 231.474 228.366C231.097 229.028 232.105 229.652 232.482 228.982Z" fill="#383972"/>
<g opacity="0.3">
<path opacity="0.3" d="M232.482 228.982C235.007 224.456 236.677 218.992 236.707 213.812C236.761 203.375 228.534 198.342 219.045 196.972C218.291 196.864 218.276 198.049 219.022 198.157C224.055 198.881 229.481 200.489 232.729 204.684C235.068 207.701 235.722 211.557 235.461 215.29C235.137 219.769 233.66 224.441 231.474 228.366C231.097 229.028 232.105 229.652 232.482 228.982Z" fill="#1F1F1F"/>
</g>
<path d="M256.429 226.816L253.451 249.283C253.066 252.177 250.603 254.332 247.687 254.332H229.163C226.246 254.332 223.783 252.169 223.398 249.283L220.42 226.816H256.429Z" fill="#383972"/>
<path opacity="0.3" d="M256.429 226.816L253.451 249.283C253.066 252.177 250.603 254.332 247.687 254.332H229.163C226.246 254.332 223.783 252.169 223.398 249.283L220.42 226.816H256.429Z" fill="white"/>
<path d="M94.877 81.0078C94.877 81.0078 103.296 83.5246 99.3637 89.7435L95.7081 84.4174L94.877 81.0078Z" fill="#2C2C2C"/>
<path d="M125.207 113.102L128.878 107.715L132.51 108.869L133.172 110.332L128.647 116.805L125.207 113.102Z" fill="#DBB178"/>
<path d="M130.649 114.508C126.962 120.288 121.167 128.701 118.951 128.208C112.44 126.753 103.49 120.588 98.8952 113.815C97.456 111.699 97.8793 108.828 99.8649 107.219L99.8495 107.165C101.958 105.449 105.052 105.772 106.768 107.881C106.853 107.981 106.93 108.089 106.999 108.197C111.07 114.039 116.257 119.58 117.081 120.05C118.074 120.627 120.652 118.179 126.108 111.283L130.649 114.508Z" fill="#535353"/>
<path opacity="0.6" d="M130.649 114.508C126.962 120.288 121.167 128.701 118.951 128.208C112.44 126.753 103.49 120.588 98.8952 113.815C97.456 111.699 97.8793 108.828 99.8649 107.219L99.8495 107.165C101.958 105.449 105.052 105.772 106.768 107.881C106.853 107.981 106.93 108.089 106.999 108.197C111.07 114.039 116.257 119.58 117.081 120.05C118.074 120.627 120.652 118.179 126.108 111.283L130.649 114.508Z" fill="white"/>
<path d="M130.732 109.852L138.004 111.275L134.618 105.18C134.618 105.18 130.216 105.195 128.877 107.712L130.732 109.852Z" fill="#DBB178"/>
<path opacity="0.2" d="M109.667 123.993C104.396 120.391 103.703 111.94 103.703 111.94L100.717 110.578L99.3086 114.38C101.91 118.005 105.712 121.423 109.667 123.993Z" fill="#1F1F1F"/>
<path d="M143.146 108.668L140.037 103.711L134.619 105.181L138.005 111.277L143.146 108.668Z" fill="#DBB178"/>
<path d="M102.757 142.495L76.9604 144.188C76.9604 144.188 76.7757 137.269 75.8753 130.881C75.5982 128.664 75.1519 126.463 74.5439 124.308C73.8743 122.107 73.0355 119.636 72.0042 116.765C71.8734 116.411 71.7426 116.057 71.5963 115.68C71.2577 114.795 70.9114 113.863 70.5189 112.886V112.84C69.7724 110.87 70.7729 108.661 72.743 107.922C72.92 107.852 73.1047 107.799 73.2894 107.76C74.9287 107.414 76.5833 107.098 78.261 106.836L79.7079 106.613C83.5713 106.036 87.4654 105.69 91.375 105.574C93.399 105.574 95.5539 105.636 97.4009 105.72L98.9324 105.797C100.887 105.913 102.242 106.036 102.242 106.036C102.242 106.036 103.088 106.205 103.588 110.746C103.588 110.97 103.642 111.224 103.665 111.485C103.735 112.424 103.781 113.61 103.812 115.033C103.866 120.883 103.55 130.65 102.757 142.495Z" fill="#535353"/>
<path opacity="0.6" d="M102.757 142.495L76.9604 144.188C76.9604 144.188 76.7757 137.269 75.8753 130.881C75.5982 128.664 75.1519 126.463 74.5439 124.308C73.8743 122.107 73.0355 119.636 72.0042 116.765C71.8734 116.411 71.7426 116.057 71.5963 115.68C71.2577 114.795 70.9114 113.863 70.5189 112.886V112.84C69.7724 110.87 70.7729 108.661 72.743 107.922C72.92 107.852 73.1047 107.799 73.2894 107.76C74.9287 107.414 76.5833 107.098 78.261 106.836L79.7079 106.613C83.5713 106.036 87.4654 105.69 91.375 105.574C93.399 105.574 95.5539 105.636 97.4009 105.72L98.9324 105.797C100.887 105.913 102.242 106.036 102.242 106.036C102.242 106.036 103.088 106.205 103.588 110.746C103.588 110.97 103.642 111.224 103.665 111.485C103.735 112.424 103.781 113.61 103.812 115.033C103.866 120.883 103.55 130.65 102.757 142.495Z" fill="white"/>
<path d="M80.6152 106.506L87.0491 115.08L91.6435 111.131L97.6387 114.025L94.391 105.628C93.3828 105.605 92.3593 105.59 91.3665 105.59C87.7725 105.69 84.1785 106.005 80.6152 106.506Z" fill="#535353"/>
<path opacity="0.9" d="M80.6152 106.506L87.0491 115.08L91.6435 111.131L97.6387 114.025L94.391 105.628C93.3828 105.605 92.3593 105.59 91.3665 105.59C87.7725 105.69 84.1785 106.005 80.6152 106.506Z" fill="white"/>
<path d="M137.558 245.962H132.07L134.572 204.539H144.838L137.558 245.962Z" fill="#DBB178"/>
<path d="M131.463 245.438C131.402 244.914 137.951 244.422 137.951 244.422C137.951 244.422 142.515 247.924 146.509 248.301C150.503 248.67 148.679 251.295 144.339 251.903L133.618 253.404C130.54 253.858 132.094 250.933 131.463 245.438Z" fill="#1F1F1F"/>
<path d="M141.237 245.661C140.406 245.615 139.574 245.454 138.782 245.192C138.751 245.184 138.72 245.169 138.697 245.138C138.674 245.084 138.674 245.03 138.697 244.976C138.697 244.907 139.051 243.283 139.89 242.806C140.144 242.652 140.452 242.613 140.736 242.706C141.152 242.837 141.252 243.06 141.26 243.222C141.26 243.552 140.944 243.922 140.506 244.261C140.944 244.137 141.406 244.137 141.845 244.261C142.037 244.33 142.191 244.476 142.276 244.668C142.406 244.915 142.376 245.207 142.206 245.423C141.929 245.638 141.583 245.715 141.237 245.661ZM139.474 244.969C140.467 245.223 141.614 245.392 141.868 245.123C141.929 245.061 141.922 244.953 141.868 244.807C141.829 244.722 141.752 244.653 141.668 244.622C140.913 244.53 140.152 244.645 139.474 244.969ZM140.367 243.044C140.252 243.044 140.144 243.075 140.044 243.137C139.605 243.514 139.29 244.03 139.159 244.592C140.005 244.107 140.852 243.499 140.852 243.237C140.852 243.183 140.76 243.129 140.613 243.075C140.536 243.052 140.452 243.044 140.367 243.044Z" fill="#1F1F1F"/>
<path opacity="0.2" d="M134.133 211.782L143.514 212.066L144.838 204.539H134.571L134.133 211.782Z" fill="#1F1F1F"/>
<path d="M111.223 246.658L105.967 245.958L114.286 200.094L124.66 203.057L111.223 246.658Z" fill="#DBB178"/>
<path d="M105.28 245.228C105.28 244.697 111.845 245.228 111.845 245.228C111.845 245.228 115.823 249.377 119.725 250.308C123.627 251.239 121.418 253.602 117.039 253.541L106.211 253.41C103.071 253.379 105.072 250.754 105.28 245.228Z" fill="#1F1F1F"/>
<path d="M115.285 246.939C114.331 246.823 113.4 246.531 112.546 246.092L112.484 246.054C112.484 246.031 112.484 246.015 112.484 245.992C112.461 245.946 112.461 245.892 112.484 245.838C112.484 245.777 113.084 244.237 113.993 243.876C114.262 243.76 114.57 243.76 114.839 243.876C115.232 244.068 115.293 244.299 115.278 244.461C115.278 244.792 114.862 245.115 114.377 245.377C114.831 245.323 115.285 245.392 115.701 245.577C115.878 245.669 116.009 245.846 116.055 246.046C116.155 246.3 116.086 246.593 115.878 246.777C115.701 246.893 115.493 246.954 115.285 246.939ZM113.231 245.954C114.17 246.354 115.285 246.7 115.578 246.462C115.639 246.408 115.655 246.308 115.578 246.146C115.555 246.054 115.493 245.977 115.409 245.931C114.685 245.754 113.939 245.754 113.231 245.954ZM114.308 244.184C114.223 244.184 114.139 244.199 114.062 244.237C113.569 244.545 113.192 245.007 112.969 245.538C113.908 245.192 114.801 244.692 114.816 244.445C114.816 244.391 114.739 244.314 114.608 244.26C114.524 244.214 114.439 244.191 114.347 244.184H114.308Z" fill="#1F1F1F"/>
<path opacity="0.2" d="M124.66 203.057L114.286 200.094L112.646 209.13L122.251 210.869L124.66 203.057Z" fill="#1F1F1F"/>
<path d="M131.854 208.094L145.053 208.794C148.432 193.232 151.802 176.076 151.133 172.312C149.863 165.101 140.058 157.758 102.033 151.547L84.3242 178.146C84.3242 178.146 110.213 176.938 133.802 176.938C133.809 176.93 132.493 191.739 131.854 208.094Z" fill="#535353"/>
<path opacity="0.1" d="M131.854 208.094L145.053 208.794C148.432 193.232 151.802 176.076 151.133 172.312C149.863 165.101 140.058 157.758 102.033 151.547L84.3242 178.146C84.3242 178.146 110.213 176.938 133.802 176.938C133.809 176.93 132.493 191.739 131.854 208.094Z" fill="#535353"/>
<path d="M130.969 206.023L131.361 209.479L145.822 209.972L146.53 206.793L130.969 206.023Z" fill="#535353"/>
<path d="M93.6065 105.605C92.86 105.59 92.1135 105.582 91.3824 105.582C88.1809 105.682 84.987 105.936 81.8086 106.344C83.1939 107.991 87.5113 110.577 90.405 110.577C94.4377 110.577 93.5372 107.575 93.6065 105.605Z" fill="#DBB178"/>
<path d="M111.337 205.417L124.828 207.61C130.308 192.271 135.787 175.946 135.695 172.267C135.51 164.94 133.902 161.145 107.405 155.227C107.405 155.227 105.996 153.179 102.756 142.527L76.9518 144.221C76.9518 144.221 65.1693 165.925 74.2813 175.2C76.3053 177.255 80.2688 178.178 84.3245 178.147C84.3245 178.147 93.6366 178.186 116.632 177.116C116.632 177.108 113.923 190.239 111.337 205.417Z" fill="#535353"/>
<path d="M110.798 203.059L126.428 205.699L124.943 208.985L110.729 206.653L110.798 203.059Z" fill="#535353"/>
<path opacity="0.1" d="M130.969 206.023L131.361 209.479L145.822 209.972L146.53 206.793L130.969 206.023Z" fill="#1F1F1F"/>
<path d="M91.6515 103.383C91.3591 105.284 91.4361 107.223 91.8901 109.086L84.8098 108.047C84.1557 107.954 83.7863 107.262 84.0556 106.661C85.0253 104.452 85.4024 100.027 85.641 97.9795C85.7795 96.7557 85.8257 95.6243 85.8334 94.8469C85.8411 94.0696 85.8334 93.7617 85.8334 93.7617L88.9964 95.2087L94.1604 97.5715C92.9676 99.3418 92.1133 101.312 91.6515 103.383Z" fill="#DBB178"/>
<path opacity="0.2" d="M94.1674 97.5762C92.9668 99.3387 92.1049 101.309 91.6277 103.387C89.0419 102.363 86.9101 100.447 85.6172 97.9841C85.7557 96.7603 85.8019 95.6289 85.8096 94.8516C86.9332 94.9593 87.9875 95.0825 88.988 95.2133L94.1674 97.5762Z" fill="#1F1F1F"/>
<path d="M94.5445 92.5295C94.3367 94.8923 95.545 96.8011 97.2381 96.8011C98.9312 96.8011 100.47 94.8846 100.678 92.5295C100.886 90.1666 99.6777 88.2578 97.9846 88.2578C96.2915 88.2501 94.7523 90.1666 94.5445 92.5295Z" fill="#535353"/>
<path opacity="0.5" d="M94.244 92.5295C94.0362 94.8923 95.2444 96.8011 96.9375 96.8011C98.6307 96.8011 100.17 94.8846 100.378 92.5295C100.585 90.1666 99.3771 88.2578 97.684 88.2578C95.9909 88.2501 94.444 90.1666 94.244 92.5295Z" fill="#1F1F1F"/>
<path d="M82.3997 88.3725C83.6618 94.168 84.1004 97.6084 87.5252 100.248C92.6738 104.228 99.4924 100.695 99.9926 94.6991C100.439 89.3037 98.3072 80.7374 92.212 79.098C86.2015 77.4894 81.1375 82.5769 82.3997 88.3725Z" fill="#DBB178"/>
<path d="M81.0627 94.4121C82.1016 95.659 83.5254 96.3902 84.7414 96.598C86.5653 96.9059 86.9809 95.2203 86.0497 93.5809C85.2108 92.1109 83.256 90.1713 81.6245 90.61C80.0237 91.0333 79.8852 92.9883 81.0627 94.4121Z" fill="#DBB178"/>
<path d="M91.5356 88.9421C91.6126 89.4193 91.9204 89.7733 92.2359 89.7348C92.5515 89.6963 92.7439 89.2807 92.6669 88.8112C92.5899 88.334 92.2821 87.98 91.9666 88.0185C91.6587 88.057 91.4663 88.4649 91.5356 88.9421Z" fill="#2C2C2C"/>
<path d="M96.931 88.3015C97.008 88.7786 97.3158 89.1327 97.6313 89.0942C97.9469 89.0557 98.1393 88.6401 98.0623 88.1706C97.9854 87.6934 97.6775 87.3394 97.362 87.3779C97.0464 87.4086 96.854 87.8243 96.931 88.3015Z" fill="#2C2C2C"/>
<path d="M95.252 88.7422C95.252 88.7422 96.7604 91.3513 98.161 92.5366C97.4376 93.4217 95.9446 93.237 95.9446 93.237L95.252 88.7422Z" fill="#C0854B"/>
<path d="M89.6037 87.4121C89.5575 87.4121 89.5113 87.4044 89.4651 87.3736C89.3266 87.2967 89.2804 87.1273 89.3574 86.9888C90.1039 85.6419 91.4122 85.5649 91.4661 85.5572C91.6123 85.5341 91.7508 85.6727 91.7585 85.8266C91.7662 85.9805 91.6431 86.1114 91.4892 86.1191C91.4353 86.1191 90.4348 86.196 89.8422 87.2582C89.7961 87.3582 89.7037 87.4121 89.6037 87.4121Z" fill="#2C2C2C"/>
<path d="M98.9617 86.1766C98.8693 86.1766 98.7847 86.1304 98.7308 86.0534C98.0074 84.9913 96.9607 84.9759 96.9453 84.9759C96.7914 84.9759 96.6606 84.8451 96.6683 84.6911C96.6683 84.5372 96.7991 84.4141 96.953 84.4141C97.0069 84.4141 98.3152 84.4372 99.2003 85.7379C99.2849 85.8687 99.2541 86.0458 99.1233 86.1304C99.0694 86.1612 99.0156 86.1766 98.9617 86.1766Z" fill="#2C2C2C"/>
<path d="M83.5314 95.984C83.5314 95.984 87.2177 92.2203 85.4092 82.9844C85.4092 82.9844 88.3721 85.5012 95.2523 83.6386C95.2523 83.6386 91.1889 84.0388 89.3187 82.1301C89.3187 82.1301 93.1129 83.8926 99.2388 82.1301C99.2388 82.1301 98.146 75.9189 91.5198 75.5956C91.5198 75.5956 93.6516 73.8023 95.6987 74.1564C95.6987 74.1564 93.6054 72.3476 88.2721 75.865L86.1865 76.6962C86.1865 76.6962 80.2452 74.5566 76.9436 79.5902C74.3347 83.5693 75.6507 96.0994 83.5314 95.984Z" fill="#2C2C2C"/>
<path d="M97.0251 94.2842C97.0251 94.2842 95.1627 93.8147 89.9141 93.6992C90.499 95.2924 91.6149 96.6008 94.3008 96.6316C96.9943 96.6701 97.0251 94.2842 97.0251 94.2842Z" fill="#2C2C2C"/>
<path d="M93.0859 95.3713C94.3865 95.3867 95.3177 95.7023 95.995 96.1949C95.6102 96.4643 95.0561 96.6413 94.3096 96.6336C93.009 96.6182 92.0854 96.3103 91.4082 95.81C91.793 95.5407 92.3394 95.3636 93.0859 95.3713Z" fill="#A02724"/>
<path d="M96.7881 94.2381C96.6342 94.5691 96.4803 94.9077 95.9492 95.0001C94.8564 95.0539 92.0628 94.6845 91.3163 94.5075C90.8391 94.4151 90.4312 94.2458 90.1465 93.707C94.1869 93.8071 96.157 94.115 96.7881 94.2381Z" fill="white"/>
<path d="M80.6758 90.3636V84.1447C80.6758 80.281 83.2462 77.0099 86.771 75.9632L88.8489 75.5938C85.2318 76.6713 82.5998 80.0193 82.5998 83.9831V90.3559H80.6758V90.3636Z" fill="#535353"/>
<path d="M85.5007 93.3732C85.7085 95.7361 84.5002 97.6448 82.8071 97.6448C81.114 97.6448 79.5671 95.7284 79.367 93.3732C79.1592 91.0104 80.3675 89.1016 82.0606 89.1016C83.7537 89.0939 85.2929 91.0104 85.5007 93.3732Z" fill="#535353"/>
<path opacity="0.5" d="M85.5007 93.3732C85.7085 95.7361 84.5002 97.6448 82.8071 97.6448C81.114 97.6448 79.5671 95.7284 79.367 93.3732C79.1592 91.0104 80.3675 89.1016 82.0606 89.1016C83.7537 89.0939 85.2929 91.0104 85.5007 93.3732Z" fill="#1F1F1F"/>
<path d="M84.4792 93.3732C84.687 95.7361 83.4787 97.6448 81.7856 97.6448C80.0925 97.6448 78.5456 95.7284 78.3455 93.3732C78.1377 91.0104 79.346 89.1016 81.0391 89.1016C82.7245 89.0939 84.2714 91.0104 84.4792 93.3732Z" fill="#535353"/>
<path opacity="0.3" d="M82.3337 93.9959L82.1952 92.749H82.4338C82.126 91.5253 81.264 90.6094 80.3174 90.6094C79.3785 90.6094 78.6782 91.5253 78.5781 92.749H78.732L78.8706 93.9959H78.6859C78.9937 95.2197 79.8557 96.1356 80.8023 96.1356C81.7412 96.1356 82.4415 95.2197 82.5415 93.9959H82.3337Z" fill="white"/>
<path d="M71.2871 93.885L74.6425 87.2812L77.3592 93.7079C77.3592 93.7079 74.6349 97.1637 71.8258 96.6711L71.2871 93.885Z" fill="#DBB178"/>
<path d="M79.8758 84.8398L81.8537 90.3429L77.3593 93.6987L74.6426 87.2797L79.8758 84.8398Z" fill="#DBB178"/>
<path d="M72.166 101.026L75.406 95.5843L75.0673 93.3676L72.2198 92.3594L68.1641 98.6706L72.166 101.026Z" fill="#DBB178"/>
<path d="M74.5048 97.6409L68.602 110.633C68.602 110.633 71.4803 108.054 73.0656 107.685C75.5899 107.092 83.2012 109.394 75.4899 117.775C75.4899 117.775 60.2057 127.335 57.0888 123.625C54.6646 120.746 64.9618 103.252 69.6794 95.5859L74.5048 97.6409Z" fill="#535353"/>
<path opacity="0.6" d="M74.5048 97.6409L68.602 110.633C68.602 110.633 71.4803 108.054 73.0656 107.685C75.5899 107.092 83.2012 109.394 75.4899 117.775C75.4899 117.775 60.2057 127.335 57.0888 123.625C54.6646 120.746 64.9618 103.252 69.6794 95.5859L74.5048 97.6409Z" fill="white"/>
<path opacity="0.2" d="M68.6017 110.632L66.9316 115.697L71.7647 108.262C70.264 109.139 68.6017 110.632 68.6017 110.632Z" fill="#1F1F1F"/>
<path d="M90.7131 99.1092C89.9435 99.1092 89.2201 99.0785 88.7814 98.9861C87.4962 98.7013 84.1561 96.8772 84.0176 96.8003L84.3254 96.2461C84.3562 96.2615 87.7193 98.101 88.9199 98.3627C90.0897 98.6167 93.8068 98.355 93.8453 98.355L93.8915 98.9861C93.7915 99.0015 92.1676 99.1092 90.7131 99.1092Z" fill="#535353"/>
<path d="M91.4062 99.2417L94.4538 99.0108C94.4538 99.0108 94.3692 98.0564 92.93 98.0949C91.4909 98.1257 91.4062 99.2417 91.4062 99.2417Z" fill="#535353"/>
<g opacity="0.5">
<g opacity="0.5">
<path opacity="0.5" d="M90.7131 99.1092C89.9435 99.1092 89.2201 99.0785 88.7814 98.9861C87.4962 98.7013 84.1561 96.8772 84.0176 96.8003L84.3254 96.2461C84.3562 96.2615 87.7193 98.101 88.9199 98.3627C90.0897 98.6167 93.8068 98.355 93.8453 98.355L93.8915 98.9861C93.7915 99.0015 92.1676 99.1092 90.7131 99.1092Z" fill="#1F1F1F"/>
</g>
<path opacity="0.5" d="M91.4062 99.2417L94.4538 99.0108C94.4538 99.0108 94.3692 98.0564 92.93 98.0949C91.4909 98.1257 91.4062 99.2417 91.4062 99.2417Z" fill="#1F1F1F"/>
</g>
<path d="M213.997 253.636C213.358 253.713 212.781 253.166 212.719 252.412L205.023 163.293C204.877 161.576 203.646 160.283 202.168 160.283H165.812C164.335 160.283 163.111 161.576 162.957 163.293L155.261 252.412C155.2 253.158 154.622 253.705 153.984 253.636C153.345 253.559 152.875 252.889 152.937 252.142L160.633 163.023C160.902 159.906 163.127 157.559 165.812 157.559H202.168C204.854 157.559 207.078 159.906 207.348 163.023L215.043 252.142C215.113 252.889 214.643 253.559 213.997 253.636Z" fill="#1F1F1F"/>
<g opacity="0.4">
<path opacity="0.4" d="M213.997 253.636C213.358 253.713 212.781 253.166 212.719 252.412L205.023 163.293C204.877 161.576 203.646 160.283 202.168 160.283H165.812C164.335 160.283 163.111 161.576 162.957 163.293L155.261 252.412C155.2 253.158 154.622 253.705 153.984 253.636C153.345 253.559 152.875 252.889 152.937 252.142L160.633 163.023C160.902 159.906 163.127 157.559 165.812 157.559H202.168C204.854 157.559 207.078 159.906 207.348 163.023L215.043 252.142C215.113 252.889 214.643 253.559 213.997 253.636Z" fill="#1F1F1F"/>
</g>
<path d="M213.488 161.931H114.664C113.802 161.931 113.102 161.231 113.102 160.369V155.305C113.102 154.443 113.802 153.742 114.664 153.742H213.488C214.35 153.742 215.05 154.443 215.05 155.305V160.369C215.05 161.231 214.35 161.931 213.488 161.931Z" fill="#2C2C2C"/>
<path opacity="0.2" d="M213.487 161.931H170.312V153.742H213.487C214.349 153.742 215.049 154.443 215.049 155.305V160.369C215.049 161.231 214.349 161.931 213.487 161.931Z" fill="white"/>
<path d="M174.419 253.985C173.778 254.059 173.198 253.534 173.137 252.809L165.414 167.145C165.267 165.495 164.031 164.252 162.548 164.252H126.057C124.574 164.252 123.346 165.495 123.192 167.145L115.469 252.809C115.407 253.527 114.828 254.052 114.187 253.985C113.546 253.911 113.075 253.268 113.136 252.55L120.859 166.886C121.13 163.889 123.362 161.633 126.057 161.633H162.541C165.236 161.633 167.468 163.889 167.738 166.886L175.461 252.55C175.531 253.268 175.06 253.911 174.419 253.985Z" fill="#1F1F1F"/>
<g opacity="0.4">
<path opacity="0.4" d="M174.419 253.985C173.778 254.059 173.198 253.534 173.137 252.809L165.414 167.145C165.267 165.495 164.031 164.252 162.548 164.252H126.057C124.574 164.252 123.346 165.495 123.192 167.145L115.469 252.809C115.407 253.527 114.828 254.052 114.187 253.985C113.546 253.911 113.075 253.268 113.136 252.55L120.859 166.886C121.13 163.889 123.362 161.633 126.057 161.633H162.541C165.236 161.633 167.468 163.889 167.738 166.886L175.461 252.55C175.531 253.268 175.06 253.911 174.419 253.985Z" fill="#1F1F1F"/>
</g>
<path d="M172.884 153.729H147.064C146.317 153.729 145.717 153.128 145.717 152.382V149.711H174.238V152.382C174.23 153.128 173.63 153.729 172.884 153.729Z" fill="#2C2C2C"/>
<path opacity="0.2" d="M172.884 153.729H147.064C146.317 153.729 145.717 153.128 145.717 152.382V149.711H174.238V152.382C174.23 153.128 173.63 153.729 172.884 153.729Z" fill="white"/>
<path d="M152.706 153.729H126.886C126.139 153.729 125.539 153.128 125.539 152.382V149.711H154.06V152.382C154.053 153.128 153.452 153.729 152.706 153.729Z" fill="#2C2C2C"/>
<path opacity="0.6" d="M152.706 153.729H126.886C126.139 153.729 125.539 153.128 125.539 152.382V149.711H154.06V152.382C154.053 153.128 153.452 153.729 152.706 153.729Z" fill="white"/>
<path d="M150.757 151.242H148.109V152.197H150.757V151.242Z" fill="#2C2C2C"/>
<path d="M146.519 151.242H143.871V152.197H146.519V151.242Z" fill="#2C2C2C"/>
<path d="M176.208 153.743H177.57C178.355 153.743 179.024 153.173 179.147 152.403L183.765 124.003C183.919 123.033 183.172 122.156 182.195 122.148L160.038 122.109L154.059 153.696H155.421L176.208 153.743Z" fill="#2C2C2C"/>
<path opacity="0.6" d="M176.208 153.743H177.57C178.355 153.743 179.024 153.173 179.147 152.403L183.765 124.003C183.919 123.033 183.172 122.156 182.195 122.148L160.038 122.109L154.059 153.696H155.421L176.208 153.743Z" fill="white"/>
<path opacity="0.2" d="M154.436 151.688L154.059 153.696H155.421L176.215 153.735H177.577C178.362 153.735 179.032 153.165 179.155 152.396L179.263 151.726L154.436 151.688Z" fill="#1F1F1F"/>
<path d="M154.082 153.727H155.444C156.229 153.727 156.899 153.158 157.022 152.388L161.586 123.98C161.74 123.01 160.993 122.133 160.008 122.133L154.082 153.727Z" fill="#2C2C2C"/>
<path opacity="0.3" d="M154.082 153.727H155.444C156.229 153.727 156.899 153.158 157.022 152.388L161.586 123.98C161.74 123.01 160.993 122.133 160.008 122.133L154.082 153.727Z" fill="white"/>
</g>
<defs>
<clipPath id="clip0_2796_187246">
<rect width="324" height="274" fill="white"/>
</clipPath>
</defs>
</svg>
