<svg width="50" height="50" viewBox="0 0 50 50" fill="none" xmlns="http://www.w3.org/2000/svg">
<circle cx="25" cy="25" r="25" fill="#38C675"/>
<path d="M13.1641 20.4219L14.8047 17.1406C14.9349 16.9062 15.1432 16.7891 15.4297 16.7891L25 17.9609L21.7578 23.3906C21.3932 23.9375 20.9115 24.1328 20.3125 23.9766L13.9453 22.1797C13.5547 22.0495 13.2943 21.8151 13.1641 21.4766C13.0078 21.138 13.0078 20.7865 13.1641 20.4219ZM25 17.9609L34.5703 16.7891C34.8568 16.7891 35.0651 16.9062 35.1953 17.1406L36.8359 20.4219C36.9922 20.7865 36.9922 21.138 36.8359 21.4766C36.7057 21.8151 36.4453 22.0495 36.0547 22.1797L29.6875 23.9766C29.0885 24.1328 28.6068 23.9375 28.2422 23.3906L25 17.9609ZM35 23.7812V30.3047C35 30.7214 34.8698 31.099 34.6094 31.4375C34.349 31.776 34.0104 31.9974 33.5938 32.1016L25.625 34.0938C25.2083 34.1979 24.8047 34.1979 24.4141 34.0938L16.4062 32.1016C15.9896 31.9974 15.651 31.776 15.3906 31.4375C15.1302 31.099 15 30.7214 15 30.3047V23.7812L16.875 24.2891V30.3047L24.0625 32.1016V22.6875C24.1146 22.1146 24.4271 21.8021 25 21.75C25.5729 21.8021 25.8854 22.1146 25.9375 22.6875V32.1016L33.125 30.3047V24.2891L35 23.7812ZM24.9609 20.5H25.0391H24.9609Z" fill="white"/>
</svg>
