<svg width="50" height="50" viewBox="0 0 50 50" fill="none" xmlns="http://www.w3.org/2000/svg">
<circle cx="25" cy="25" r="25" fill="#FE5050"/>
<path d="M32.5 16.75H17.5C16.7969 16.776 16.2109 17.0234 15.7422 17.4922C15.2734 17.9609 15.026 18.5469 15 19.25V31.75C15.026 32.4531 15.2734 33.0391 15.7422 33.5078C16.2109 33.9766 16.7969 34.224 17.5 34.25H32.5C33.2031 34.224 33.7891 33.9766 34.2578 33.5078C34.7266 33.0391 34.974 32.4531 35 31.75V19.25C34.974 18.5469 34.7266 17.9609 34.2578 17.4922C33.7891 17.0234 33.2031 16.776 32.5 16.75ZM33.125 31.75C33.099 32.1406 32.8906 32.349 32.5 32.375H17.5C17.1094 32.349 16.901 32.1406 16.875 31.75V19.25C16.901 18.8594 17.1094 18.651 17.5 18.625H32.5C32.8906 18.651 33.099 18.8594 33.125 19.25V31.75ZM28.125 22.3359C27.6823 21.9714 27.2396 21.9714 26.7969 22.3359L25 24.1719L23.125 22.3359C22.6823 21.9714 22.2396 21.9714 21.7969 22.3359C21.4323 22.7786 21.4323 23.2214 21.7969 23.6641L23.6328 25.5L21.8359 27.3359C21.4714 27.7786 21.4714 28.2214 21.8359 28.6641C22.2786 29.0286 22.7214 29.0286 23.1641 28.6641L25 26.8281L26.8359 28.6641C27.2786 29.0286 27.7214 29.0286 28.1641 28.6641C28.5286 28.2214 28.5286 27.7786 28.1641 27.3359L26.3281 25.5L28.1641 23.6641C28.5286 23.2214 28.5156 22.7786 28.125 22.3359Z" fill="white"/>
</svg>
