<svg width="50" height="50" viewBox="0 0 50 50" fill="none" xmlns="http://www.w3.org/2000/svg">
<circle cx="25" cy="25" r="25" fill="#3EAEFF"/>
<path d="M20.3125 28.625C20.8854 28.6771 21.1979 28.9896 21.25 29.5625C21.1979 30.1354 20.8854 30.4479 20.3125 30.5H18.4375C17.8646 30.4479 17.5521 30.1354 17.5 29.5625C17.5521 28.9896 17.8646 28.6771 18.4375 28.625H20.3125ZM27.8125 28.625C28.3854 28.6771 28.6979 28.9896 28.75 29.5625C28.6979 30.1354 28.3854 30.4479 27.8125 30.5H23.4375C22.8646 30.4479 22.5521 30.1354 22.5 29.5625C22.5521 28.9896 22.8646 28.6771 23.4375 28.625H27.8125ZM33.75 16.75C34.4531 16.776 35.0391 17.0234 35.5078 17.4922C35.9766 17.9609 36.224 18.5469 36.25 19.25V31.75C36.224 32.4531 35.9766 33.0391 35.5078 33.5078C35.0391 33.9766 34.4531 34.224 33.75 34.25H16.25C15.5469 34.224 14.9609 33.9766 14.4922 33.5078C14.0234 33.0391 13.776 32.4531 13.75 31.75V19.25C13.776 18.5469 14.0234 17.9609 14.4922 17.4922C14.9609 17.0234 15.5469 16.776 16.25 16.75H33.75ZM33.75 18.625H16.25C15.8594 18.651 15.651 18.8594 15.625 19.25V20.5H34.375V19.25C34.349 18.8594 34.1406 18.651 33.75 18.625ZM34.375 24.25H15.625V31.75C15.651 32.1406 15.8594 32.349 16.25 32.375H33.75C34.1406 32.349 34.349 32.1406 34.375 31.75V24.25Z" fill="white"/>
</svg>
