<svg width="50" height="50" viewBox="0 0 50 50" fill="none" xmlns="http://www.w3.org/2000/svg">
<circle cx="25" cy="25" r="25" fill="#FF9700"/>
<path d="M30.0273 27.2188L31.6797 31.4727C31.7969 31.7773 31.75 32.0586 31.5391 32.3164C31.375 32.5273 31.1641 32.6328 30.9062 32.6328C30.8594 32.6328 30.8008 32.6328 30.7305 32.6328L29.1484 32.3164L28.4102 33.793C28.2461 34.0977 27.9883 34.25 27.6367 34.25C27.6133 34.25 27.6016 34.25 27.6016 34.25C27.25 34.2266 27.0039 34.0508 26.8633 33.7227L25.2812 29.75H24.7539L23.1367 33.7227C22.9961 34.0508 22.75 34.2266 22.3984 34.25C22.375 34.25 22.3633 34.25 22.3633 34.25C22.0117 34.25 21.7539 34.0977 21.5898 33.793L20.8516 32.3164L19.2695 32.6328C19.1992 32.6328 19.1406 32.6328 19.0938 32.6328C18.8359 32.6328 18.625 32.5273 18.4609 32.3164C18.25 32.0586 18.2031 31.7773 18.3203 31.4727L20.0078 27.2539C19.7031 27.0664 19.4219 26.7734 19.1641 26.375C18.9766 26.0469 18.8711 25.7305 18.8477 25.4258C18.8242 25.1445 18.8242 24.8984 18.8477 24.6875C18.8477 24.6641 18.8477 24.6523 18.8477 24.6523C18.8477 24.6523 18.8359 24.6406 18.8125 24.6172C18.6953 24.4531 18.5781 24.2422 18.4609 23.9844C18.3203 23.7031 18.25 23.375 18.25 23C18.25 22.625 18.3203 22.2969 18.4609 22.0156C18.5781 21.7578 18.6953 21.5469 18.8125 21.3828C18.8359 21.3594 18.8477 21.3477 18.8477 21.3477C18.8477 21.3242 18.8477 21.3125 18.8477 21.3125C18.8242 21.1016 18.8242 20.8438 18.8477 20.5391C18.8711 20.2578 18.9766 19.9531 19.1641 19.625C19.3516 19.2969 19.5742 19.0508 19.832 18.8867C20.0664 18.7227 20.2773 18.5938 20.4648 18.5C20.4648 18.5 20.4766 18.5 20.5 18.5C20.5 18.4766 20.5 18.4648 20.5 18.4648C20.5938 18.2773 20.7227 18.0664 20.8867 17.832C21.0508 17.5742 21.2969 17.3516 21.625 17.1641C22 16.9297 22.4453 16.8125 22.9609 16.8125C23.0547 16.8125 23.1719 16.8242 23.3125 16.8477C23.3359 16.8477 23.3477 16.8477 23.3477 16.8477C23.3477 16.8477 23.3594 16.8359 23.3828 16.8125C23.5469 16.6953 23.7578 16.5781 24.0156 16.4609C24.2969 16.3203 24.625 16.25 25 16.25C25.375 16.25 25.7031 16.3203 25.9844 16.4609C26.2422 16.5781 26.4531 16.6953 26.6172 16.8125C26.6172 16.8359 26.6172 16.8477 26.6172 16.8477C26.6172 16.8477 26.6289 16.8477 26.6523 16.8477C26.793 16.8242 26.9219 16.8125 27.0391 16.8125C27.5312 16.8125 27.9648 16.9297 28.3398 17.1641C28.668 17.3516 28.9141 17.5742 29.0781 17.832C29.2422 18.0664 29.3711 18.2773 29.4648 18.4648C29.4648 18.4648 29.4648 18.4766 29.4648 18.5C29.4883 18.5 29.5 18.5 29.5 18.5C29.6875 18.5938 29.9102 18.7227 30.168 18.8867C30.4023 19.0508 30.6133 19.2969 30.8008 19.625C30.9883 19.9531 31.0938 20.2578 31.1172 20.5391C31.1406 20.8438 31.1406 21.1016 31.1172 21.3125C31.1172 21.3125 31.1172 21.3242 31.1172 21.3477C31.1172 21.3477 31.1289 21.3594 31.1523 21.3828C31.2695 21.5469 31.3867 21.7578 31.5039 22.0156C31.6445 22.2969 31.7148 22.625 31.7148 23C31.6445 23.75 31.4688 24.3008 31.1875 24.6523C31.1641 24.6758 31.1523 24.6875 31.1523 24.6875C31.1523 24.7109 31.1523 24.7227 31.1523 24.7227C31.1758 24.9336 31.1758 25.1797 31.1523 25.4609C31.1289 25.7656 31.0234 26.082 30.8359 26.4102C30.6016 26.7617 30.332 27.0312 30.0273 27.2188ZM29.3945 25.5312C29.4883 25.3203 29.5117 25.0742 29.4648 24.793C29.4414 24.582 29.4531 24.3828 29.5 24.1953C29.5469 24.0312 29.6406 23.8672 29.7812 23.7031C29.9453 23.4922 30.0391 23.2578 30.0625 23C30.0391 22.7422 29.9336 22.5078 29.7461 22.2969C29.6289 22.1328 29.5469 21.9688 29.5 21.8047C29.4531 21.6172 29.4414 21.418 29.4648 21.207C29.5117 20.9258 29.4883 20.6797 29.3945 20.4688C29.2539 20.2812 29.0547 20.1289 28.7969 20.0117C28.6094 19.9414 28.4453 19.8359 28.3047 19.6953C28.1641 19.5547 28.0586 19.3906 27.9883 19.2031C27.8711 18.9453 27.7188 18.7461 27.5312 18.6055C27.3906 18.5352 27.2383 18.5 27.0742 18.5C26.9805 18.5 26.8867 18.5117 26.793 18.5352C26.6992 18.5352 26.6055 18.5352 26.5117 18.5352C26.418 18.5352 26.3125 18.5234 26.1953 18.5C26.0312 18.4531 25.8672 18.3711 25.7031 18.2539C25.4922 18.0664 25.2578 17.9609 25 17.9375C24.7422 17.9609 24.5078 18.0664 24.2969 18.2539C24.1328 18.3711 23.9688 18.4531 23.8047 18.5C23.6875 18.5234 23.582 18.5352 23.4883 18.5352C23.3945 18.5352 23.3008 18.5352 23.207 18.5352C23.1133 18.5117 23.0312 18.5 22.9609 18.5C22.7734 18.5 22.6094 18.5352 22.4688 18.6055C22.2812 18.7461 22.1289 18.9453 22.0117 19.2031C21.9414 19.3906 21.8359 19.5547 21.6953 19.6953C21.5547 19.8359 21.3906 19.9414 21.2031 20.0117C20.9453 20.1289 20.7461 20.2812 20.6055 20.4688C20.5117 20.6797 20.4883 20.9258 20.5352 21.207C20.5586 21.418 20.5469 21.6172 20.5 21.8047C20.4531 21.9688 20.3594 22.1328 20.2188 22.2969C20.0547 22.5078 19.9609 22.7422 19.9375 23C19.9609 23.2578 20.0664 23.4922 20.2539 23.7031C20.3711 23.8672 20.4531 24.0312 20.5 24.1953C20.5469 24.3828 20.5586 24.582 20.5352 24.793C20.4883 25.0742 20.5117 25.3203 20.6055 25.5312C20.7461 25.7188 20.9453 25.8711 21.2031 25.9883C21.3906 26.0586 21.5547 26.1641 21.6953 26.3047C21.8125 26.4219 21.918 26.5742 22.0117 26.7617C22.1289 27.0195 22.2812 27.2188 22.4688 27.3594C22.6094 27.4297 22.7617 27.4648 22.9258 27.4648C23.0195 27.4648 23.1133 27.4531 23.207 27.4297C23.3008 27.4297 23.3945 27.4297 23.4883 27.4297C23.5586 27.4297 23.6406 27.4531 23.7344 27.5C23.7578 27.5 23.7812 27.5 23.8047 27.5C23.9688 27.5469 24.1328 27.6406 24.2969 27.7812C24.5078 27.9453 24.7422 28.0391 25 28.0625C25.2578 28.0391 25.4922 27.9336 25.7031 27.7461C25.8672 27.6289 26.0312 27.5469 26.1953 27.5C26.3125 27.4766 26.418 27.4648 26.5117 27.4648C26.6055 27.4648 26.6992 27.4648 26.793 27.4648C26.8867 27.4648 26.9688 27.4766 27.0391 27.5C27.2266 27.5 27.3906 27.4648 27.5312 27.3945C27.7188 27.2539 27.8711 27.0547 27.9883 26.7969C28.0586 26.6094 28.1641 26.4453 28.3047 26.3047C28.4453 26.1641 28.6094 26.0586 28.7969 25.9883C29.0547 25.8711 29.2539 25.7188 29.3945 25.5312ZM25 20.75C25.6328 20.7734 26.1602 20.9961 26.582 21.418C27.0039 21.8398 27.2266 22.3672 27.25 23C27.2266 23.6328 27.0039 24.1602 26.582 24.582C26.1602 25.0039 25.6328 25.2266 25 25.25C24.3672 25.2266 23.8398 25.0039 23.418 24.582C22.9961 24.1602 22.7734 23.6328 22.75 23C22.7734 22.3672 22.9961 21.8398 23.418 21.418C23.8398 20.9961 24.3672 20.7734 25 20.75Z" fill="white"/>
</svg>
